<?xml version="1.0" standalone="no"?><!-- Generator: Gravit.io --><svg xmlns="http://www.w3.org/2000/svg" xmlns:xlink="http://www.w3.org/1999/xlink" style="isolation:isolate" viewBox="0 0 200 200" width="200" height="200"><defs><clipPath id="_clipPath_pDwiaBoronu848hUbjY16j6ZBC4dt4LW"><rect width="200" height="200"/></clipPath></defs><g clip-path="url(#_clipPath_pDwiaBoronu848hUbjY16j6ZBC4dt4LW)"><g id="bull-skull"><path d=" M 64.776 82.215 C 61.038 80.82 57.295 79.358 53.548 77.78 C 41.774 72.82 29.902 66.678 20.775 57.569 C 14.279 51.087 9.488 42.939 7.353 33.915 C 5.449 25.796 5.536 17.365 6.558 9.13 C 6.891 6.45 9.333 4.546 12.014 4.879 C 14.302 5.163 16.025 6.985 16.272 9.181 L 16.28 9.257 C 17.087 16.419 18.705 23.321 21.607 28.959 C 27.541 40.493 39.596 45.59 51.588 48.454 C 58.386 50.077 65.33 51.097 72.263 51.932 C 80.879 52.97 87.023 60.796 85.986 69.412 C 84.948 78.029 77.122 84.173 68.505 83.135 C 67.27 82.987 66.086 82.698 64.966 82.288 L 64.776 82.215 Z " fill="rgb(221,175,137)"/><g opacity="0.1"><path d=" M 86.066 66.559 C 20.944 73.859 9.462 31.026 9.177 5.383 C 7.788 6.098 6.764 7.463 6.558 9.13 C 5.535 17.365 5.448 25.796 7.353 33.915 C 9.488 42.938 14.279 51.086 20.775 57.569 C 29.902 66.678 41.774 72.82 53.548 77.78 C 57.295 79.358 61.038 80.82 64.776 82.214 L 64.966 82.289 C 66.086 82.699 67.27 82.987 68.505 83.136 C 77.122 84.173 84.948 78.029 85.986 69.413 C 86.102 68.448 86.123 67.495 86.066 66.559 Z " fill="rgb(0,0,0)"/></g><path d=" M 135.224 82.215 C 138.962 80.82 142.705 79.358 146.452 77.78 C 158.227 72.82 170.099 66.678 179.226 57.569 C 185.721 51.087 190.512 42.939 192.647 33.915 C 194.552 25.796 194.465 17.365 193.443 9.13 C 193.11 6.45 190.667 4.547 187.987 4.879 C 185.698 5.164 183.976 6.986 183.729 9.181 L 183.721 9.258 C 182.913 16.419 181.295 23.322 178.394 28.96 C 172.459 40.493 160.405 45.59 148.412 48.454 C 141.615 50.077 134.67 51.098 127.738 51.932 C 119.121 52.97 112.977 60.796 114.015 69.413 C 115.052 78.029 122.879 84.173 131.495 83.135 C 132.73 82.987 133.914 82.699 135.034 82.289 L 135.224 82.215 Z " fill="rgb(221,175,137)"/><g opacity="0.1"><path d=" M 156.649 65.035 C 144.126 70.403 141.847 57.894 142.225 49.764 C 137.426 50.67 132.579 51.349 127.738 51.932 C 119.121 52.97 112.977 60.796 114.015 69.413 C 115.052 78.029 122.879 84.173 131.495 83.135 C 132.73 82.987 133.914 82.699 135.034 82.289 L 135.224 82.214 C 138.962 80.82 142.706 79.357 146.452 77.779 C 158.227 72.82 170.099 66.678 179.226 57.569 C 185.722 51.086 190.513 42.938 192.648 33.914 C 193.01 32.37 193.299 30.815 193.525 29.252 C 186.157 47.764 169.8 59.398 156.649 65.035 Z " fill="rgb(0,0,0)"/></g><g id="Group" style="opacity:0.1;"><g opacity="0.1"><path d=" M 152.021 67.524 C 151.294 67.524 150.566 67.247 150.011 66.692 C 148.901 65.582 148.901 63.783 150.011 62.673 L 153.912 58.772 C 155.023 57.662 156.822 57.662 157.931 58.772 C 159.041 59.882 159.041 61.681 157.931 62.791 L 154.03 66.692 C 153.476 67.246 152.748 67.524 152.021 67.524 Z " fill="rgb(0,0,0)"/></g><g opacity="0.1"><path d=" M 181.606 43.3 C 180.879 43.3 180.152 43.023 179.597 42.468 C 178.487 41.358 178.487 39.558 179.597 38.449 L 182.057 35.99 C 183.166 34.88 184.966 34.88 186.076 35.99 C 187.185 37.1 187.185 38.9 186.075 40.009 L 183.616 42.468 C 183.061 43.023 182.333 43.3 181.606 43.3 Z " fill="rgb(0,0,0)"/></g></g><path d=" M 97.468 150.434 C 98.683 148.651 101.317 148.651 102.532 150.434 C 104.669 153.57 107.39 156.362 109.882 156.362 C 116.906 156.362 124.804 140.85 127.039 123.337 C 129.161 106.707 143.351 103.321 141.417 76.881 C 139.081 44.945 117.748 35.986 100 35.986 C 82.251 35.986 60.918 44.945 58.582 76.881 C 56.648 103.321 70.838 106.707 72.96 123.337 C 75.195 140.85 83.093 156.362 90.117 156.362 C 92.61 156.362 95.331 153.57 97.468 150.434 Z " fill="rgb(255,240,192)"/><g id="Group" style="opacity:0.2;"><g opacity="0.2"><path d=" M 76.39 97.929 C 72.152 98.696 67.758 94.054 66.583 87.568 C 65.408 81.082 67.896 75.193 72.134 74.426 C 76.372 73.658 80.767 78.301 81.941 84.787 C 83.116 91.272 80.629 97.161 76.39 97.929 Z " fill="rgb(0,0,0)"/></g><g opacity="0.2"><path d=" M 127.861 74.424 C 132.099 75.191 134.586 81.08 133.412 87.566 C 132.237 94.052 127.843 98.695 123.604 97.927 C 119.366 97.159 116.879 91.271 118.053 84.785 C 119.228 78.299 123.622 73.656 127.861 74.424 Z " fill="rgb(0,0,0)"/></g><g opacity="0.2"><path d=" M 100 143.617 C 109.545 143.617 111.565 133.576 111.987 128.875 C 112.072 127.933 110.999 127.341 110.249 127.917 L 106.637 130.69 C 105.768 131.357 104.502 131.022 104.076 130.013 L 100.968 122.652 C 100.607 121.796 99.393 121.796 99.031 122.652 L 95.924 130.013 C 95.497 131.022 94.232 131.357 93.363 130.69 L 89.75 127.917 C 89 127.342 87.928 127.933 88.012 128.875 C 88.435 133.576 90.454 143.617 100 143.617 Z " fill="rgb(0,0,0)"/></g></g><g opacity="0.1"><path d=" M 106.79 36.435 L 103.096 47.456 C 102.864 48.15 102.916 48.908 103.242 49.563 L 109.021 61.168 L 107.086 67.14 C 106.616 68.589 107.41 70.145 108.86 70.614 C 109.142 70.706 109.429 70.75 109.711 70.75 C 110.874 70.75 111.956 70.007 112.334 68.841 L 113.531 65.15 L 117.119 67.379 C 117.573 67.661 118.075 67.795 118.572 67.795 C 119.494 67.795 120.396 67.333 120.918 66.492 C 121.722 65.198 121.325 63.497 120.031 62.693 L 114.113 59.016 L 108.691 48.126 L 112.251 37.504 C 110.438 37.033 108.61 36.68 106.79 36.435 Z " fill="rgb(0,0,0)"/></g><g opacity="0.1"><path d=" M 90.798 138.366 C 88.885 135.198 88.232 131.317 88.012 128.874 C 87.939 128.057 88.737 127.505 89.439 127.749 C 88.244 120.252 86.169 111.635 81.706 102.795 C 80.684 100.769 79.769 98.736 78.941 96.701 C 78.192 97.33 77.335 97.756 76.39 97.927 C 72.149 98.695 67.758 94.057 66.583 87.566 C 65.407 81.076 67.892 75.192 72.134 74.424 C 72.605 74.339 73.078 74.324 73.549 74.367 C 72.445 60.506 75.66 47.966 82.112 39.399 C 70.264 44.375 60.149 55.458 58.582 76.88 C 56.648 103.321 70.839 106.706 72.961 123.337 C 75.195 140.849 83.093 156.362 90.118 156.362 C 92.147 156.362 94.327 154.51 96.221 152.13 C 92.411 151.48 91.688 146.245 90.798 138.366 Z " fill="rgb(0,0,0)"/></g><g id="Group" style="opacity:0.1;"><g opacity="0.1"><path d=" M 47.802 71.132 C 47.075 71.132 46.347 70.855 45.793 70.3 C 44.683 69.19 44.683 67.391 45.793 66.281 L 49.715 62.358 C 50.825 61.249 52.625 61.249 53.735 62.358 C 54.844 63.468 54.844 65.267 53.735 66.377 L 49.811 70.3 C 49.257 70.855 48.529 71.132 47.802 71.132 Z " fill="rgb(0,0,0)"/></g><g opacity="0.1"><path d=" M 46.668 60.114 C 45.94 60.114 45.214 59.836 44.659 59.282 C 43.549 58.172 43.549 56.372 44.658 55.263 L 46.854 53.067 C 47.964 51.957 49.763 51.957 50.873 53.067 C 51.983 54.176 51.983 55.976 50.874 57.085 L 48.678 59.281 C 48.123 59.836 47.395 60.114 46.668 60.114 Z " fill="rgb(0,0,0)"/></g></g><g id="Group" style="opacity:0.1;"><g opacity="0.1"><path d=" M 84.65 63.788 C 83.923 63.788 83.196 63.511 82.641 62.956 C 81.531 61.846 81.531 60.046 82.641 58.937 L 86.706 54.872 C 87.816 53.763 89.615 53.763 90.725 54.873 C 91.834 55.983 91.834 57.782 90.725 58.891 L 86.66 62.956 C 86.105 63.51 85.377 63.788 84.65 63.788 Z " fill="rgb(0,0,0)"/></g><g opacity="0.1"><path d=" M 108.852 112.067 C 108.125 112.067 107.397 111.79 106.842 111.235 C 105.732 110.125 105.732 108.326 106.842 107.216 L 112.253 101.805 C 113.363 100.696 115.162 100.696 116.272 101.805 C 117.382 102.916 117.382 104.715 116.272 105.824 L 110.861 111.235 C 110.307 111.789 109.579 112.067 108.852 112.067 Z " fill="rgb(0,0,0)"/></g></g><path d=" M 83.815 94.608 C 85.076 91.623 85.404 87.954 84.738 84.278 C 83.261 76.12 77.501 70.563 71.628 71.628 C 65.753 72.692 62.309 79.915 63.787 88.073 C 64.453 91.748 66.046 95.069 68.274 97.422 C 70.379 99.646 72.942 100.85 75.482 100.85 C 75.956 100.85 76.428 100.808 76.897 100.723 C 79.88 100.184 82.402 97.954 83.815 94.608 Z  M 78.579 92.396 C 77.926 93.942 76.944 94.939 75.884 95.131 C 74.826 95.325 73.555 94.734 72.401 93.515 C 70.945 91.977 69.844 89.624 69.379 87.06 C 68.614 82.833 69.846 77.727 72.641 77.22 C 72.775 77.196 72.913 77.184 73.054 77.184 C 75.32 77.184 78.245 80.322 79.145 85.291 C 79.609 87.856 79.403 90.445 78.579 92.396 Z  M 116.185 94.608 C 117.598 97.954 120.12 100.184 123.103 100.724 C 123.587 100.811 124.07 100.854 124.55 100.854 C 129.896 100.854 134.858 95.558 136.213 88.073 C 136.879 84.398 136.552 80.729 135.291 77.744 C 133.877 74.398 131.355 72.168 128.373 71.628 C 125.39 71.087 122.246 72.291 119.749 74.929 C 117.521 77.282 115.928 80.603 115.262 84.279 L 115.262 84.279 C 114.597 87.954 114.924 91.623 116.185 94.608 Z  M 120.855 85.292 C 120.855 85.292 120.855 85.292 120.855 85.291 C 121.32 82.727 122.421 80.374 123.877 78.837 C 124.887 77.77 125.986 77.185 126.955 77.185 C 127.093 77.185 127.228 77.197 127.36 77.221 C 128.419 77.413 129.402 78.41 130.055 79.956 C 130.879 81.907 131.085 84.497 130.621 87.061 C 129.665 92.338 126.422 95.549 124.115 95.132 C 123.056 94.94 122.073 93.943 121.421 92.397 C 120.597 90.445 120.391 87.856 120.855 85.292 Z  M 196.263 8.78 C 195.737 4.549 191.865 1.534 187.636 2.059 C 184.075 2.502 181.306 5.299 180.904 8.862 C 180.902 8.878 180.901 8.893 180.899 8.907 L 180.894 8.962 C 180.035 16.553 178.344 22.844 175.866 27.66 C 171.337 36.462 162.403 42.191 147.751 45.69 C 143.695 46.659 139.368 47.467 134.254 48.209 C 132.481 45.998 130.483 44.002 128.256 42.233 C 118.801 34.721 107.671 33.144 100 33.144 C 92.328 33.144 81.198 34.721 71.743 42.233 C 69.516 44.002 67.518 45.998 65.745 48.209 C 60.63 47.467 56.304 46.659 52.247 45.69 C 40.396 42.86 32.498 38.694 27.394 32.579 C 26.388 31.374 24.596 31.213 23.391 32.219 C 22.186 33.225 22.025 35.017 23.031 36.222 C 28.96 43.324 37.824 48.089 50.927 51.218 C 54.41 52.05 58.07 52.766 62.21 53.422 C 58.713 59.576 56.579 67.008 55.831 75.654 C 55.429 75.487 55.036 75.323 54.65 75.161 C 44.8 71.012 32.277 65.034 22.781 55.558 C 16.454 49.243 12.075 41.533 10.118 33.266 C 8.493 26.335 8.25 18.554 9.377 9.48 C 9.516 8.36 10.54 7.562 11.663 7.7 C 12.602 7.817 13.333 8.549 13.445 9.484 L 13.451 9.538 C 13.452 9.55 13.453 9.563 13.455 9.577 C 14.041 14.774 15.008 19.48 16.329 23.563 C 16.812 25.056 18.415 25.875 19.908 25.391 C 21.401 24.908 22.22 23.306 21.737 21.813 C 20.534 18.096 19.649 13.772 19.105 8.959 L 19.099 8.901 C 19.098 8.889 19.097 8.876 19.095 8.863 C 18.694 5.3 15.925 2.502 12.363 2.059 C 8.131 1.535 4.263 4.549 3.738 8.78 C 2.527 18.533 2.804 26.967 4.588 34.569 C 6.788 43.87 11.692 52.519 18.767 59.581 C 28.959 69.752 42.119 76.05 52.445 80.399 C 53.43 80.814 54.466 81.24 55.564 81.684 C 55.577 95.156 60.024 102.415 64 108.895 C 66.881 113.592 69.37 117.648 70.142 123.697 C 70.797 128.836 71.969 134.058 73.531 138.799 C 74.021 140.289 75.628 141.099 77.119 140.608 C 78.609 140.118 79.42 138.511 78.929 137.02 C 77.479 132.619 76.39 127.762 75.779 122.977 C 74.853 115.716 71.798 110.737 68.843 105.922 C 64.654 99.094 60.323 92.034 61.416 77.087 C 63.942 42.554 89.24 38.826 99.999 38.826 C 132.297 38.826 137.741 65.583 138.582 77.087 C 139.676 92.034 135.344 99.094 131.154 105.922 C 128.2 110.737 125.146 115.716 124.219 122.977 C 121.876 141.338 114.037 153.52 109.881 153.52 C 109.154 153.52 107.223 152.272 104.879 148.832 C 104.027 147.582 102.741 146.725 101.296 146.4 C 108.876 145.755 113.893 139.404 114.817 129.127 C 114.956 127.575 114.164 126.087 112.799 125.336 C 111.434 124.585 109.754 124.713 108.518 125.661 L 106.105 127.514 L 103.585 121.546 C 102.975 120.101 101.567 119.167 99.999 119.167 C 98.43 119.167 97.022 120.101 96.413 121.546 L 93.893 127.514 L 91.479 125.662 C 90.243 124.713 88.563 124.585 87.198 125.336 C 85.833 126.087 85.041 127.576 85.181 129.128 C 86.104 139.404 91.122 145.755 98.702 146.4 C 97.257 146.725 95.97 147.582 95.118 148.833 C 92.775 152.272 90.843 153.52 90.116 153.52 C 88.52 153.52 86.301 151.606 84.179 148.4 C 83.313 147.091 81.55 146.732 80.241 147.598 C 78.932 148.464 78.573 150.228 79.44 151.537 C 82.758 156.552 86.451 159.203 90.116 159.203 C 93.31 159.203 96.573 156.791 99.815 152.033 C 99.834 152.005 99.88 151.938 99.998 151.938 C 100.117 151.938 100.163 152.005 100.183 152.033 C 103.424 156.791 106.688 159.203 109.88 159.203 C 119.549 159.203 127.629 141.15 129.856 123.696 C 130.628 117.647 133.117 113.591 135.999 108.894 C 139.975 102.414 144.421 95.156 144.434 81.684 C 145.533 81.239 146.569 80.812 147.553 80.398 C 155.487 77.056 167.145 71.686 176.754 63.661 C 177.959 62.655 178.12 60.863 177.114 59.658 C 176.108 58.453 174.316 58.292 173.111 59.298 C 164.087 66.834 152.944 71.96 145.347 75.159 C 144.961 75.322 144.567 75.486 144.166 75.652 C 143.418 67.007 141.284 59.575 137.788 53.42 C 141.927 52.765 145.587 52.049 149.07 51.217 C 159.38 48.755 173.897 43.904 180.919 30.259 C 183.716 24.823 185.608 17.864 186.543 9.575 C 186.545 9.56 186.546 9.545 186.548 9.53 L 186.553 9.48 C 186.666 8.546 187.397 7.815 188.335 7.699 C 189.452 7.557 190.481 8.358 190.621 9.479 C 191.747 18.554 191.505 26.334 189.88 33.259 C 188.462 39.255 185.805 44.903 181.984 50.045 C 181.047 51.305 181.31 53.085 182.57 54.021 C 183.079 54.4 183.673 54.582 184.263 54.582 C 185.131 54.582 185.988 54.185 186.545 53.435 C 190.83 47.669 193.813 41.321 195.412 34.563 C 197.196 26.967 197.473 18.533 196.263 8.78 Z  M 100 140.776 C 96.871 140.776 94.665 139.452 93.059 136.611 C 92.401 135.446 91.931 134.154 91.596 132.915 L 91.633 132.944 C 92.751 133.801 94.173 134.088 95.536 133.727 C 96.899 133.367 97.994 132.415 98.542 131.118 L 100 127.664 L 101.459 131.117 C 102.007 132.416 103.102 133.367 104.465 133.727 C 105.828 134.088 107.25 133.801 108.368 132.944 L 108.405 132.915 C 108.07 134.154 107.6 135.445 106.942 136.611 C 105.335 139.452 103.13 140.776 100 140.776 Z " fill="rgb(0,0,0)"/></g><path d=" M 57.175 161.568 L 57.175 161.568 L 57.175 161.568 Q 57.175 184.248 39.255 184.248 L 39.255 184.248 L 24.835 184.248 L 24.835 140.778 L 39.535 140.778 L 39.535 140.778 Q 49.125 140.778 53.15 146.133 L 53.15 146.133 L 53.15 146.133 Q 57.175 151.488 57.175 161.568 Z  M 39.045 174.168 L 39.045 174.168 Q 42.755 174.168 43.84 171.543 L 43.84 171.543 L 43.84 171.543 Q 44.925 168.918 44.925 162.723 L 44.925 162.723 L 44.925 162.723 Q 44.925 156.528 43.77 153.938 L 43.77 153.938 L 43.77 153.938 Q 42.615 151.348 38.835 151.348 L 38.835 151.348 L 36.735 151.348 L 36.735 174.168 L 39.045 174.168 L 39.045 174.168 Z  M 91.405 154.568 L 91.405 154.568 L 91.405 154.568 Q 91.405 158.488 90.215 161.078 L 90.215 161.078 L 90.215 161.078 Q 89.025 163.668 86.505 165.768 L 86.505 165.768 L 92.315 184.248 L 79.365 184.248 L 75.025 168.568 L 73.415 168.568 L 73.415 184.248 L 61.655 184.248 L 61.655 140.778 L 77.895 140.778 L 77.895 140.778 Q 84.895 140.778 88.15 144.068 L 88.15 144.068 L 88.15 144.068 Q 91.405 147.358 91.405 154.568 Z  M 75.235 161.218 L 75.235 161.218 Q 77.055 161.218 77.825 160.168 L 77.825 160.168 L 77.825 160.168 Q 78.595 159.118 78.595 156.353 L 78.595 156.353 L 78.595 156.353 Q 78.595 153.588 77.825 152.503 L 77.825 152.503 L 77.825 152.503 Q 77.055 151.418 75.305 151.418 L 75.305 151.418 L 73.415 151.418 L 73.415 161.218 L 75.235 161.218 L 75.235 161.218 Z  M 108.835 140.778 L 108.835 184.248 L 96.935 184.248 L 96.935 140.778 L 108.835 140.778 L 108.835 140.778 Z  M 134.525 140.778 L 147.125 140.778 L 139.775 184.248 L 121.295 184.248 L 113.455 140.778 L 126.685 140.778 L 130.465 169.268 L 131.655 169.268 L 134.525 140.778 L 134.525 140.778 Z  M 175.265 174.448 L 174.565 184.248 L 151.045 184.248 L 151.045 140.778 L 175.265 140.778 L 174.565 151.488 L 163.015 151.488 L 163.015 157.998 L 173.025 157.998 L 173.025 167.238 L 163.015 167.238 L 163.015 174.448 L 175.265 174.448 L 175.265 174.448 Z " fill-rule="evenodd" fill="rgb(151,151,151)" vector-effect="non-scaling-stroke" stroke-width="3" stroke="rgb(0,0,0)" stroke-linejoin="miter" stroke-linecap="square" stroke-miterlimit="3"/></g></svg>