<?xml version="1.0" standalone="no"?><!-- Generator: Gravit.io --><svg xmlns="http://www.w3.org/2000/svg" xmlns:xlink="http://www.w3.org/1999/xlink" style="isolation:isolate" viewBox="0 0 400 70" width="400" height="70"><defs><clipPath id="_clipPath_uaLl6BUlM8uIWyd31EgjnOhpNSdI07Jn"><rect width="400" height="70"/></clipPath></defs><g clip-path="url(#_clipPath_uaLl6BUlM8uIWyd31EgjnOhpNSdI07Jn)"><g id="bull-skull"><path d=" M 27.329 35.187 C 25.736 34.593 24.14 33.97 22.544 33.297 C 17.525 31.184 12.465 28.566 8.575 24.684 C 5.807 21.921 3.765 18.448 2.855 14.602 C 2.044 11.142 2.081 7.548 2.516 4.039 C 2.658 2.896 3.699 2.085 4.842 2.227 C 5.817 2.348 6.551 3.125 6.656 4.06 L 6.66 4.093 C 7.004 7.145 7.694 10.087 8.93 12.49 C 11.46 17.406 16.597 19.578 21.708 20.799 C 24.605 21.49 27.565 21.925 30.52 22.281 C 34.192 22.723 36.811 26.059 36.368 29.731 C 35.926 33.403 32.591 36.022 28.918 35.58 C 28.392 35.516 27.887 35.394 27.41 35.219 L 27.329 35.187 Z " fill="rgb(221,175,137)"/><g opacity="0.1"><path d=" M 36.402 28.515 C 8.648 31.626 3.754 13.371 3.632 2.442 C 3.041 2.747 2.604 3.328 2.516 4.039 C 2.081 7.548 2.044 11.142 2.855 14.602 C 3.765 18.448 5.807 21.92 8.575 24.684 C 12.465 28.566 17.525 31.183 22.544 33.297 C 24.14 33.97 25.736 34.593 27.329 35.187 L 27.41 35.219 C 27.887 35.394 28.392 35.517 28.918 35.58 C 32.591 36.022 35.926 33.404 36.368 29.731 C 36.418 29.32 36.427 28.914 36.402 28.515 Z " fill="rgb(0,0,0)"/></g><path d=" M 57.354 35.187 C 58.947 34.593 60.542 33.97 62.139 33.297 C 67.157 31.184 72.217 28.566 76.107 24.684 C 78.876 21.921 80.918 18.448 81.828 14.602 C 82.639 11.142 82.602 7.549 82.167 4.039 C 82.025 2.897 80.984 2.085 79.841 2.227 C 78.866 2.348 78.132 3.125 78.026 4.061 L 78.023 4.093 C 77.679 7.145 76.989 10.087 75.753 12.49 C 73.223 17.406 68.086 19.578 62.975 20.799 C 60.078 21.491 57.118 21.925 54.163 22.281 C 50.491 22.723 47.872 26.059 48.314 29.731 C 48.757 33.404 52.092 36.022 55.765 35.58 C 56.291 35.517 56.796 35.394 57.273 35.219 L 57.354 35.187 Z " fill="rgb(221,175,137)"/><g opacity="0.1"><path d=" M 66.485 27.866 C 61.148 30.153 60.177 24.822 60.337 21.357 C 58.292 21.743 56.227 22.033 54.163 22.281 C 50.491 22.723 47.872 26.059 48.314 29.731 C 48.757 33.403 52.092 36.022 55.765 35.58 C 56.291 35.516 56.796 35.394 57.273 35.219 L 57.354 35.187 C 58.947 34.593 60.543 33.97 62.139 33.297 C 67.158 31.183 72.217 28.566 76.107 24.683 C 78.876 21.92 80.918 18.448 81.828 14.602 C 81.982 13.944 82.105 13.281 82.201 12.615 C 79.061 20.505 72.09 25.463 66.485 27.866 Z " fill="rgb(0,0,0)"/></g><g id="Group" style="opacity:0.1;"><g opacity="0.1"><path d=" M 64.513 28.926 C 64.203 28.926 63.893 28.808 63.656 28.572 C 63.183 28.099 63.183 27.332 63.656 26.859 L 65.319 25.196 C 65.792 24.723 66.559 24.723 67.032 25.196 C 67.505 25.669 67.505 26.436 67.032 26.909 L 65.369 28.572 C 65.133 28.808 64.822 28.926 64.513 28.926 Z " fill="rgb(0,0,0)"/></g><g opacity="0.1"><path d=" M 77.122 18.602 C 76.812 18.602 76.502 18.484 76.265 18.247 C 75.792 17.774 75.792 17.007 76.266 16.535 L 77.314 15.486 C 77.787 15.013 78.554 15.014 79.027 15.487 C 79.5 15.96 79.5 16.727 79.027 17.2 L 77.978 18.248 C 77.742 18.484 77.432 18.602 77.122 18.602 Z " fill="rgb(0,0,0)"/></g></g><path d=" M 41.262 64.262 C 41.78 63.503 42.903 63.503 43.421 64.262 C 44.331 65.599 45.491 66.789 46.553 66.789 C 49.547 66.789 52.913 60.178 53.865 52.714 C 54.77 45.626 60.818 44.183 59.993 32.914 C 58.998 19.303 49.906 15.485 42.341 15.485 C 34.777 15.485 25.685 19.303 24.689 32.914 C 23.865 44.183 29.913 45.626 30.817 52.714 C 31.77 60.178 35.135 66.789 38.129 66.789 C 39.192 66.789 40.351 65.599 41.262 64.262 Z " fill="rgb(255,240,192)"/><g id="Group" style="opacity:0.2;"><g opacity="0.2"><path d=" M 32.279 41.885 C 30.473 42.212 28.6 40.233 28.099 37.469 C 27.598 34.705 28.659 32.195 30.465 31.868 C 32.271 31.541 34.144 33.519 34.645 36.284 C 35.145 39.048 34.085 41.558 32.279 41.885 Z " fill="rgb(0,0,0)"/></g><g opacity="0.2"><path d=" M 54.216 31.867 C 56.022 32.194 57.082 34.704 56.581 37.468 C 56.081 40.232 54.208 42.211 52.401 41.884 C 50.595 41.557 49.535 39.047 50.036 36.283 C 50.536 33.518 52.409 31.54 54.216 31.867 Z " fill="rgb(0,0,0)"/></g><g opacity="0.2"><path d=" M 42.341 61.357 C 46.41 61.357 47.27 57.077 47.45 55.074 C 47.486 54.673 47.029 54.42 46.71 54.666 L 45.17 55.847 C 44.799 56.132 44.26 55.989 44.078 55.559 L 42.754 52.422 C 42.6 52.057 42.083 52.057 41.929 52.422 L 40.604 55.559 C 40.422 55.989 39.883 56.132 39.512 55.847 L 37.973 54.666 C 37.653 54.421 37.196 54.673 37.232 55.074 C 37.412 57.077 38.273 61.357 42.341 61.357 Z " fill="rgb(0,0,0)"/></g></g><g opacity="0.1"><path d=" M 45.235 15.676 L 43.661 20.373 C 43.562 20.669 43.584 20.992 43.723 21.271 L 46.186 26.217 L 45.361 28.762 C 45.161 29.38 45.5 30.043 46.117 30.243 C 46.238 30.283 46.36 30.301 46.48 30.301 C 46.976 30.301 47.437 29.985 47.598 29.488 L 48.108 27.914 L 49.638 28.865 C 49.831 28.984 50.045 29.042 50.257 29.042 C 50.65 29.042 51.034 28.845 51.257 28.486 C 51.599 27.935 51.43 27.21 50.878 26.867 L 48.356 25.3 L 46.045 20.659 L 47.563 16.132 C 46.79 15.931 46.011 15.78 45.235 15.676 Z " fill="rgb(0,0,0)"/></g><g opacity="0.1"><path d=" M 38.42 59.119 C 37.604 57.769 37.326 56.115 37.232 55.074 C 37.201 54.726 37.541 54.49 37.84 54.594 C 37.331 51.399 36.447 47.727 34.544 43.959 C 34.109 43.095 33.719 42.229 33.366 41.362 C 33.047 41.63 32.682 41.811 32.279 41.884 C 30.471 42.211 28.6 40.235 28.099 37.468 C 27.598 34.702 28.657 32.194 30.465 31.867 C 30.666 31.831 30.867 31.824 31.068 31.843 C 30.597 25.935 31.968 20.591 34.717 16.939 C 29.668 19.06 25.357 23.784 24.689 32.914 C 23.865 44.183 29.913 45.626 30.817 52.714 C 31.77 60.177 35.136 66.789 38.129 66.789 C 38.994 66.789 39.923 66 40.731 64.985 C 39.107 64.708 38.799 62.477 38.42 59.119 Z " fill="rgb(0,0,0)"/></g><g id="Group" style="opacity:0.1;"><g opacity="0.1"><path d=" M 20.095 30.464 C 19.785 30.464 19.475 30.346 19.238 30.11 C 18.765 29.636 18.765 28.87 19.238 28.397 L 20.91 26.725 C 21.383 26.252 22.15 26.252 22.623 26.725 C 23.096 27.198 23.096 27.964 22.623 28.437 L 20.951 30.11 C 20.715 30.346 20.404 30.464 20.095 30.464 Z " fill="rgb(0,0,0)"/></g><g opacity="0.1"><path d=" M 19.611 25.768 C 19.301 25.768 18.991 25.65 18.755 25.413 C 18.282 24.94 18.282 24.174 18.755 23.701 L 19.691 22.765 C 20.164 22.292 20.93 22.292 21.404 22.765 C 21.877 23.238 21.877 24.004 21.404 24.477 L 20.468 25.413 C 20.231 25.65 19.921 25.768 19.611 25.768 Z " fill="rgb(0,0,0)"/></g></g><g id="Group" style="opacity:0.1;"><g opacity="0.1"><path d=" M 35.799 27.334 C 35.489 27.334 35.179 27.216 34.943 26.979 C 34.47 26.506 34.47 25.739 34.943 25.266 L 36.675 23.534 C 37.148 23.061 37.915 23.061 38.388 23.534 C 38.861 24.007 38.861 24.774 38.388 25.247 L 36.656 26.98 C 36.419 27.216 36.109 27.334 35.799 27.334 Z " fill="rgb(0,0,0)"/></g><g opacity="0.1"><path d=" M 46.114 47.91 C 45.804 47.91 45.494 47.792 45.257 47.556 C 44.784 47.083 44.784 46.316 45.257 45.843 L 47.563 43.537 C 48.037 43.064 48.803 43.064 49.276 43.537 C 49.749 44.01 49.749 44.777 49.276 45.25 L 46.97 47.556 C 46.734 47.792 46.424 47.91 46.114 47.91 Z " fill="rgb(0,0,0)"/></g></g><path d=" M 35.443 40.469 C 35.981 39.197 36.12 37.634 35.837 36.067 C 35.207 32.59 32.752 30.221 30.249 30.675 C 27.745 31.129 26.278 34.207 26.907 37.684 C 27.191 39.251 27.87 40.666 28.82 41.669 C 29.717 42.616 30.809 43.13 31.892 43.13 C 32.094 43.13 32.295 43.112 32.495 43.076 C 33.766 42.846 34.841 41.896 35.443 40.469 Z  M 33.212 39.527 C 32.934 40.186 32.515 40.61 32.063 40.692 C 31.612 40.775 31.07 40.523 30.579 40.004 C 29.958 39.348 29.489 38.345 29.291 37.252 C 28.965 35.451 29.49 33.275 30.681 33.059 C 30.738 33.049 30.797 33.043 30.857 33.043 C 31.823 33.043 33.069 34.381 33.453 36.499 C 33.651 37.592 33.563 38.695 33.212 39.527 Z  M 49.239 40.469 C 49.842 41.896 50.917 42.846 52.188 43.076 C 52.394 43.113 52.6 43.132 52.805 43.131 C 55.083 43.131 57.198 40.874 57.775 37.684 C 58.059 36.118 57.92 34.554 57.382 33.282 C 56.78 31.856 55.705 30.906 54.434 30.675 C 53.162 30.445 51.823 30.958 50.758 32.082 C 49.809 33.085 49.13 34.5 48.846 36.067 L 48.846 36.067 C 48.563 37.634 48.702 39.197 49.239 40.469 Z  M 51.23 36.499 C 51.23 36.499 51.23 36.499 51.23 36.499 C 51.428 35.406 51.897 34.403 52.518 33.748 C 52.948 33.293 53.416 33.044 53.83 33.044 C 53.888 33.044 53.946 33.049 54.002 33.059 C 54.454 33.141 54.872 33.566 55.151 34.225 C 55.502 35.056 55.59 36.16 55.392 37.253 C 54.984 39.502 53.602 40.87 52.619 40.693 C 52.168 40.611 51.749 40.186 51.471 39.527 C 51.12 38.695 51.032 37.592 51.23 36.499 Z  M 83.368 3.89 C 83.144 2.086 81.494 0.801 79.692 1.025 C 78.174 1.214 76.994 2.406 76.823 3.925 C 76.822 3.931 76.821 3.938 76.821 3.944 L 76.818 3.967 C 76.452 7.203 75.731 9.884 74.675 11.936 C 72.745 15.688 68.938 18.13 62.693 19.621 C 60.964 20.034 59.12 20.378 56.94 20.694 C 56.185 19.752 55.333 18.901 54.384 18.147 C 50.354 14.946 45.611 14.274 42.341 14.274 C 39.071 14.274 34.328 14.946 30.298 18.147 C 29.349 18.901 28.497 19.752 27.742 20.694 C 25.562 20.378 23.718 20.034 21.989 19.621 C 16.938 18.414 13.572 16.639 11.397 14.033 C 10.968 13.519 10.204 13.451 9.691 13.879 C 9.177 14.308 9.108 15.072 9.537 15.585 C 12.064 18.612 15.842 20.643 21.426 21.977 C 22.911 22.331 24.471 22.637 26.235 22.916 C 24.745 25.539 23.835 28.706 23.517 32.391 C 23.345 32.32 23.178 32.25 23.013 32.181 C 18.815 30.413 13.478 27.865 9.431 23.826 C 6.734 21.135 4.868 17.849 4.034 14.326 C 3.341 11.371 3.238 8.055 3.718 4.188 C 3.777 3.71 4.214 3.371 4.692 3.429 C 5.092 3.479 5.404 3.791 5.452 4.19 L 5.454 4.213 C 5.455 4.218 5.455 4.224 5.456 4.229 C 5.706 6.444 6.118 8.45 6.681 10.19 C 6.887 10.826 7.57 11.175 8.206 10.969 C 8.843 10.764 9.192 10.081 8.986 9.444 C 8.473 7.86 8.096 6.017 7.864 3.966 L 7.862 3.941 C 7.861 3.936 7.86 3.931 7.86 3.925 C 7.689 2.406 6.509 1.214 4.991 1.025 C 3.187 0.802 1.538 2.087 1.314 3.89 C 0.798 8.046 0.917 11.641 1.677 14.881 C 2.615 18.845 4.704 22.531 7.72 25.541 C 12.064 29.876 17.672 32.56 22.073 34.413 C 22.493 34.59 22.935 34.772 23.403 34.961 C 23.408 40.703 25.304 43.797 26.998 46.559 C 28.226 48.56 29.287 50.289 29.616 52.867 C 29.895 55.058 30.395 57.283 31.06 59.303 C 31.269 59.939 31.954 60.284 32.589 60.075 C 33.225 59.866 33.57 59.181 33.361 58.545 C 32.743 56.67 32.279 54.6 32.019 52.56 C 31.624 49.466 30.322 47.343 29.062 45.291 C 27.277 42.381 25.431 39.372 25.897 33.002 C 26.973 18.284 37.755 16.695 42.341 16.695 C 56.106 16.695 58.426 28.099 58.785 33.002 C 59.251 39.372 57.405 42.381 55.619 45.291 C 54.36 47.344 53.058 49.466 52.663 52.56 C 51.665 60.386 48.324 65.578 46.552 65.578 C 46.243 65.578 45.42 65.046 44.421 63.58 C 44.058 63.047 43.509 62.682 42.894 62.543 C 46.124 62.268 48.263 59.561 48.656 55.182 C 48.716 54.52 48.378 53.886 47.796 53.566 C 47.215 53.246 46.499 53.3 45.972 53.704 L 44.943 54.494 L 43.869 51.95 C 43.609 51.334 43.009 50.937 42.341 50.937 C 41.672 50.937 41.072 51.335 40.812 51.95 L 39.738 54.494 L 38.71 53.705 C 38.183 53.3 37.467 53.246 36.885 53.566 C 36.303 53.886 35.966 54.52 36.025 55.182 C 36.419 59.561 38.557 62.268 41.788 62.543 C 41.172 62.682 40.624 63.047 40.261 63.58 C 39.262 65.046 38.439 65.578 38.129 65.578 C 37.449 65.578 36.503 64.762 35.599 63.396 C 35.229 62.838 34.478 62.685 33.92 63.054 C 33.362 63.423 33.209 64.175 33.579 64.732 C 34.993 66.87 36.567 68 38.129 68 C 39.49 68 40.881 66.972 42.262 64.944 C 42.271 64.932 42.29 64.903 42.341 64.903 C 42.391 64.903 42.411 64.932 42.419 64.944 C 43.801 66.972 45.192 68 46.552 68 C 50.673 68 54.117 60.306 55.066 52.867 C 55.395 50.289 56.456 48.56 57.684 46.558 C 59.379 43.797 61.274 40.703 61.279 34.961 C 61.748 34.772 62.189 34.59 62.608 34.413 C 65.99 32.989 70.959 30.7 75.054 27.28 C 75.567 26.851 75.636 26.087 75.207 25.574 C 74.779 25.06 74.015 24.992 73.501 25.421 C 69.655 28.632 64.906 30.817 61.668 32.181 C 61.504 32.25 61.336 32.32 61.165 32.391 C 60.846 28.706 59.937 25.538 58.446 22.915 C 60.211 22.636 61.77 22.331 63.255 21.976 C 67.649 20.927 73.836 18.859 76.829 13.044 C 78.021 10.727 78.827 7.761 79.226 4.229 C 79.227 4.222 79.227 4.216 79.228 4.209 L 79.23 4.188 C 79.278 3.79 79.59 3.478 79.99 3.429 C 80.466 3.369 80.904 3.71 80.964 4.188 C 81.444 8.055 81.341 11.371 80.648 14.323 C 80.044 16.878 78.911 19.285 77.283 21.477 C 76.884 22.014 76.996 22.772 77.532 23.171 C 77.75 23.333 78.003 23.41 78.254 23.41 C 78.624 23.41 78.989 23.241 79.227 22.922 C 81.053 20.464 82.324 17.759 83.006 14.878 C 83.766 11.641 83.884 8.046 83.368 3.89 Z  M 42.341 60.146 C 41.008 60.146 40.068 59.582 39.383 58.371 C 39.102 57.874 38.902 57.324 38.759 56.796 L 38.775 56.808 C 39.252 57.174 39.858 57.296 40.439 57.142 C 41.019 56.988 41.486 56.583 41.72 56.03 L 42.341 54.558 L 42.963 56.03 C 43.197 56.583 43.664 56.988 44.244 57.142 C 44.825 57.296 45.431 57.174 45.908 56.808 L 45.924 56.796 C 45.781 57.324 45.581 57.874 45.3 58.371 C 44.615 59.582 43.675 60.146 42.341 60.146 Z " fill="rgb(0,0,0)"/></g><path d=" M 263.472 32.432 L 263.472 32.432 L 263.472 32.432 Q 263.472 53.493 246.832 53.493 L 246.832 53.493 L 233.443 53.493 L 233.443 13.127 L 247.092 13.127 L 247.092 13.127 Q 255.997 13.127 259.735 18.1 L 259.735 18.1 L 259.735 18.1 Q 263.472 23.072 263.472 32.432 Z  M 246.638 44.133 L 246.638 44.133 Q 250.082 44.133 251.09 41.695 L 251.09 41.695 L 251.09 41.695 Q 252.097 39.258 252.097 33.505 L 252.097 33.505 L 252.097 33.505 Q 252.097 27.752 251.025 25.348 L 251.025 25.348 L 251.025 25.348 Q 249.953 22.943 246.443 22.943 L 246.443 22.943 L 244.492 22.943 L 244.492 44.133 L 246.638 44.133 L 246.638 44.133 Z  M 295.258 25.932 L 295.258 25.932 L 295.258 25.932 Q 295.258 29.572 294.153 31.978 L 294.153 31.978 L 294.153 31.978 Q 293.048 34.383 290.708 36.332 L 290.708 36.332 L 296.102 53.493 L 284.078 53.493 L 280.048 38.933 L 278.553 38.933 L 278.553 53.493 L 267.633 53.493 L 267.633 13.127 L 282.713 13.127 L 282.713 13.127 Q 289.213 13.127 292.235 16.182 L 292.235 16.182 L 292.235 16.182 Q 295.258 19.237 295.258 25.932 Z  M 280.242 32.108 L 280.242 32.108 Q 281.933 32.108 282.648 31.133 L 282.648 31.133 L 282.648 31.133 Q 283.362 30.158 283.362 27.59 L 283.362 27.59 L 283.362 27.59 Q 283.362 25.022 282.648 24.015 L 282.648 24.015 L 282.648 24.015 Q 281.933 23.008 280.308 23.008 L 280.308 23.008 L 278.553 23.008 L 278.553 32.108 L 280.242 32.108 L 280.242 32.108 Z  M 311.443 13.127 L 311.443 53.493 L 300.393 53.493 L 300.393 13.127 L 311.443 13.127 L 311.443 13.127 Z  M 335.298 13.127 L 346.998 13.127 L 340.173 53.493 L 323.013 53.493 L 315.732 13.127 L 328.018 13.127 L 331.528 39.582 L 332.633 39.582 L 335.298 13.127 L 335.298 13.127 Z  M 373.128 44.393 L 372.477 53.493 L 350.638 53.493 L 350.638 13.127 L 373.128 13.127 L 372.477 23.072 L 361.753 23.072 L 361.753 29.118 L 371.047 29.118 L 371.047 37.698 L 361.753 37.698 L 361.753 44.393 L 373.128 44.393 L 373.128 44.393 Z  M 91.937 13.127 L 91.287 22.943 L 83.747 22.943 L 83.747 53.493 L 72.632 53.493 L 72.632 22.943 L 64.637 22.943 L 65.287 13.127 L 91.937 13.127 L 91.937 13.127 Z  M 105.847 40.233 L 105.847 40.233 Q 105.847 42.248 106.692 43.223 L 106.692 43.223 L 106.692 43.223 Q 107.537 44.198 109.455 44.198 L 109.455 44.198 L 109.455 44.198 Q 111.372 44.198 112.12 43.255 L 112.12 43.255 L 112.12 43.255 Q 112.867 42.313 112.867 40.168 L 112.867 40.168 L 112.867 13.127 L 124.047 13.127 L 124.047 40.817 L 124.047 40.817 Q 124.047 47.773 120.245 50.957 L 120.245 50.957 L 120.245 50.957 Q 116.442 54.143 109.065 54.143 L 109.065 54.143 L 109.065 54.143 Q 101.687 54.143 98.08 50.99 L 98.08 50.99 L 98.08 50.99 Q 94.472 47.838 94.472 40.948 L 94.472 40.948 L 94.472 13.127 L 105.847 13.127 L 105.847 40.233 L 105.847 40.233 Z  M 150.957 44.457 L 150.308 53.493 L 129.767 53.493 L 129.767 13.127 L 140.883 13.127 L 140.883 44.457 L 150.957 44.457 L 150.957 44.457 Z  M 155.735 17.353 L 155.735 17.353 L 155.735 17.353 Q 159.472 12.478 167.987 12.478 L 167.987 12.478 L 167.987 12.478 Q 176.503 12.478 180.175 17.288 L 180.175 17.288 L 180.175 17.288 Q 183.848 22.098 183.848 32.92 L 183.848 32.92 L 183.848 32.92 Q 183.848 43.743 180.078 48.943 L 180.078 48.943 L 180.078 48.943 Q 176.308 54.143 167.858 54.143 L 167.858 54.143 L 167.858 54.143 Q 159.407 54.143 155.703 49.008 L 155.703 49.008 L 155.703 49.008 Q 151.998 43.873 151.998 33.05 L 151.998 33.05 L 151.998 33.05 Q 151.998 22.228 155.735 17.353 Z  M 172.668 32.953 L 172.668 32.953 Q 172.668 26.973 171.725 24.86 L 171.725 24.86 L 171.725 24.86 Q 170.782 22.748 167.89 22.748 L 167.89 22.748 L 167.89 22.748 Q 164.998 22.748 164.152 24.86 L 164.152 24.86 L 164.152 24.86 Q 163.308 26.973 163.308 32.888 L 163.308 32.888 L 163.308 34.448 L 163.308 34.448 Q 163.308 40.753 164.25 42.735 L 164.25 42.735 L 164.25 42.735 Q 165.193 44.718 168.085 44.718 L 168.085 44.718 L 168.085 44.718 Q 170.978 44.718 171.823 42.832 L 171.823 42.832 L 171.823 42.832 Q 172.668 40.948 172.668 35.033 L 172.668 35.033 L 172.668 32.953 L 172.668 32.953 Z  M 209.652 33.993 L 216.867 53.493 L 204.582 53.493 L 199.707 38.283 L 199.057 38.283 L 199.057 53.493 L 188.267 53.493 L 188.267 13.127 L 199.057 13.127 L 199.057 30.028 L 199.707 30.028 L 205.557 13.127 L 217.517 13.127 L 209.652 33.993 L 209.652 33.993 Z " fill-rule="evenodd" fill="rgb(151,151,151)" vector-effect="non-scaling-stroke" stroke-width="3" stroke="rgb(0,0,0)" stroke-linejoin="miter" stroke-linecap="square" stroke-miterlimit="3"/></g></svg>